<?xml version="1.0" encoding="iso-8859-1"?>
<!-- Generator: Adobe Illustrator 19.0.0, SVG Export Plug-In . SVG Version: 6.00 Build 0)  -->
<svg version="1.1" id="Capa_1" xmlns="http://www.w3.org/2000/svg" xmlns:xlink="http://www.w3.org/1999/xlink" x="0px" y="0px"
	 viewBox="0 0 512 512" style="enable-background:new 0 0 512 512;" xml:space="preserve">
<path style="fill:#607D8B;" d="M480,309.333h-42.667c-5.891,0-10.667-4.776-10.667-10.667c0-5.891,4.776-10.667,10.667-10.667h32
	V170.667c0-5.891,4.776-10.667,10.667-10.667c5.891,0,10.667,4.776,10.667,10.667v128C490.667,304.558,485.891,309.333,480,309.333z
	"/>
<g>
	<circle style="fill:#455A64;" cx="480" cy="149.333" r="32"/>
	<path style="fill:#455A64;" d="M416,224h-21.333c-5.891,0-10.667,4.776-10.667,10.667v128c0,5.891,4.776,10.667,10.667,10.667H416
		c17.673,0,32-14.327,32-32V256C448,238.327,433.673,224,416,224z"/>
</g>
<rect x="138.667" y="202.667" style="fill:#D32F2F;" width="128" height="192"/>
<g>
	<path style="fill:#F44336;" d="M32,202.667h106.667v192H32c-17.673,0-32-14.327-32-32v-128C0,216.994,14.327,202.667,32,202.667z"
		/>
	<path style="fill:#F44336;" d="M405.333,234.667v128c0,17.673-14.327,32-32,32H266.667v-192h106.667
		C391.006,202.667,405.333,216.994,405.333,234.667z"/>
</g>
<g>
	<path style="fill:#ECEFF1;" d="M96,245.333H53.333c-5.891,0-10.667,4.776-10.667,10.667v10.667c0,5.891,4.776,10.667,10.667,10.667
		S64,272.558,64,266.667h14.933c-10.237,20.443-18.33,41.89-24.149,64h-1.451c-5.891,0-10.667,4.776-10.667,10.667
		S47.442,352,53.333,352h21.333c5.891,0,10.667-4.776,10.667-10.667c-0.045-5.156-3.821-9.52-8.917-10.304
		c7.53-24.217,17.256-47.696,29.056-70.144c2.698-5.237,0.64-11.669-4.597-14.367C99.367,245.741,97.696,245.335,96,245.333z"/>
	<path style="fill:#ECEFF1;" d="M224,245.333h-42.667c-5.891,0-10.667,4.776-10.667,10.667v10.667
		c0,5.891,4.776,10.667,10.667,10.667c5.891,0,10.667-4.776,10.667-10.667h14.933c-10.237,20.443-18.33,41.89-24.149,64h-1.451
		c-5.891,0-10.667,4.776-10.667,10.667S175.442,352,181.333,352h21.333c5.891,0,10.667-4.776,10.667-10.667
		c-0.045-5.156-3.821-9.52-8.917-10.304c7.53-24.217,17.256-47.696,29.056-70.144c2.698-5.237,0.64-11.669-4.597-14.367
		C227.367,245.741,225.696,245.335,224,245.333z"/>
	<path style="fill:#ECEFF1;" d="M361.109,250.453c-1.935-3.179-5.388-5.119-9.109-5.12h-42.667c-5.891,0-10.667,4.776-10.667,10.667
		v10.667c0,5.891,4.776,10.667,10.667,10.667S320,272.558,320,266.667h14.933c-10.237,20.443-18.33,41.89-24.149,64h-1.451
		c-5.891,0-10.667,4.776-10.667,10.667S303.442,352,309.333,352h21.333c5.891,0,10.667-4.776,10.667-10.667
		c-0.045-5.156-3.821-9.52-8.917-10.304c7.53-24.217,17.256-47.696,29.056-70.144C363.177,257.582,363.04,253.63,361.109,250.453z"
		/>
</g>
<g>
</g>
<g>
</g>
<g>
</g>
<g>
</g>
<g>
</g>
<g>
</g>
<g>
</g>
<g>
</g>
<g>
</g>
<g>
</g>
<g>
</g>
<g>
</g>
<g>
</g>
<g>
</g>
<g>
</g>
</svg>
