<svg id="Capa_1" enable-background="new 0 0 512 512" height="512" viewBox="0 0 512 512" width="512" xmlns="http://www.w3.org/2000/svg"><g><path d="m150 210v60l-30 30h-90l-30-30v-60z" fill="#e6a82e"/><path d="m150 210v60l-30 30h-45v-90z" fill="#b38324"/><path d="m331 270v60l-30 30h-91l-30-30v-60z" fill="#ffd396"/><path d="m331 270v60l-30 30h-45v-90z" fill="#e6a82e"/><path d="m331 330v60l-30 30h-91l-30-30v-60z" fill="#e6a82e"/><path d="m331 330v60l-30 30h-45v-90z" fill="#b38324"/><path d="m512 390v61l-30 30h-91l-30-30v-61z" fill="#ffd396"/><path d="m512 390v61l-30 30h-46v-91z" fill="#e6a82e"/><path d="m361 451h151v61h-151z" fill="#e6a82e"/><path d="m436 451h76v61h-76z" fill="#b38324"/><path d="m331 390v61l-30 30h-91l-30-30v-61z" fill="#ffd396"/><path d="m331 390v61l-30 30h-45v-91z" fill="#e6a82e"/><path d="m180 451h151v61h-151z" fill="#e6a82e"/><path d="m256 451h75v61h-75z" fill="#b38324"/><path d="m150 270v60l-30 30h-90l-30-30v-60z" fill="#ffd396"/><path d="m150 270v60l-30 30h-45v-90z" fill="#e6a82e"/><path d="m150 330v60l-30 30h-90l-30-30v-60z" fill="#e6a82e"/><path d="m150 330v60l-30 30h-45v-90z" fill="#b38324"/><path d="m150 390v61l-30 30h-90l-30-30v-61z" fill="#ffd396"/><path d="m150 390v61l-30 30h-45v-91z" fill="#e6a82e"/><path d="m0 451h150v61h-150z" fill="#e6a82e"/><path d="m75 451h75v61h-75z" fill="#b38324"/><path d="m421 240v33.558l-127.969-153.558h-37.031-143.427l-88.432-120-24.141 17.813 97.427 132.187h158.573 22.969l124.995 150h-42.964v30h90v-90z" fill="#995c70"/><path d="m403.964 300h-42.964v30h90v-90h-30v33.558l-127.969-153.558h-37.031v30h22.969z" fill="#8c4d62"/></g></svg>