<svg id="Layer_1" enable-background="new 0 0 480 480" height="512" viewBox="0 0 480 480" width="512" xmlns="http://www.w3.org/2000/svg"><path d="m16 316c-4.418 0-8-3.582-8-8v-88.652c0-3.237 1.95-6.155 4.941-7.392l224.521-92.905c1.645-.681 3.47-.793 5.186-.32l223.479 61.649c3.469.957 5.873 4.113 5.873 7.712v119.908c0 4.418-3.582 8-8 8z" fill="#d6f4fc"/><path d="m472 188.09v52.24c0 4.418-3.582 8-8 8h-448c-4.418 0-8-3.582-8-8v-20.98c0-3.24 1.95-6.16 4.94-7.39l224.52-92.91c1.65-.68 3.47-.79 5.19-.32l223.48 61.65c3.47.96 5.87 4.11 5.87 7.71z" fill="#e8f8fc"/><path d="m342 191.986v24.014c0 4.418-3.582 8-8 8h-210.852c-8.662 0-11.146-11.846-3.214-15.326l117.394-51.502c1.726-.757 3.663-.881 5.471-.349l93.458 27.488c3.405 1.001 5.743 4.126 5.743 7.675z" fill="#4d4e59"/><circle cx="385" cy="316" fill="#42434d" r="46"/><circle cx="85" cy="316" fill="#42434d" r="46"/><path d="m110.718 277.852c5.514 3.724 2.568 12.354-4.082 12.127-25.382-.868-48.57 19.729-47.609 47.633.231 6.697-8.371 9.72-12.131 4.173-20.315-29.968.698-70.319 36.204-71.746 10.25-.413 19.792 2.527 27.618 7.813z" fill="#4d4e59"/><path d="m410.718 277.852c5.514 3.724 2.568 12.354-4.082 12.127-25.382-.868-48.57 19.729-47.609 47.633.231 6.697-8.371 9.72-12.131 4.173-20.315-29.968.698-70.319 36.204-71.746 10.25-.413 19.792 2.527 27.618 7.813z" fill="#4d4e59"/><path d="m480 182v134c0 4.418-3.582 8-8 8s-8-3.582-8-8v-127.908l-223.479-61.649-224.521 92.905v96.652c0 4.418-3.582 8-8 8s-8-3.582-8-8v-102c0-3.237 1.95-6.154 4.941-7.392l232-96c1.645-.681 3.469-.793 5.187-.32l232 64c3.469.957 5.872 4.113 5.872 7.712zm-158 34h-198.852l117.394-51.502 99.201 29.177c4.237 1.246 8.686-1.179 9.932-5.417 1.247-4.239-1.179-8.686-5.417-9.932l-102-30c-1.808-.531-3.746-.408-5.471.349l-155 68c-7.902 3.465-5.407 15.325 3.213 15.325h237c4.418 0 8-3.582 8-8s-3.582-8-8-8zm117 100c0 29.776-24.224 54-54 54s-54-24.224-54-54 24.224-54 54-54 54 24.224 54 54zm-16 0c0-20.953-17.047-38-38-38s-38 17.047-38 38 17.047 38 38 38 38-17.047 38-38zm-116 0c0 4.418-3.582 8-8 8h-160.596c-3.878 25.995-26.346 46-53.404 46-29.776 0-54-24.224-54-54s24.224-54 54-54c27.058 0 49.526 20.005 53.404 46h160.596c4.418 0 8 3.582 8 8zm-184 0c0-20.953-17.047-38-38-38s-38 17.047-38 38 17.047 38 38 38 38-17.047 38-38z"/></svg>