<svg id="Capa_1" enable-background="new 0 0 512 512" height="512" viewBox="0 0 512 512" width="512" xmlns="http://www.w3.org/2000/svg"><g><path d="m0 256c0-141.235 114.372-255.757 255.55-256 140.639-.241 255.79 114.139 256.447 254.776.41 87.69-43.272 165.203-110.154 211.646-6.385 4.434-14 6.754-21.773 6.754h-248.595c-7.433 0-14.723-2.196-20.839-6.422-66.841-46.19-110.636-123.358-110.636-210.754z" fill="#44bfd7"/><path d="m455 390h19.171c-18.553 30.143-43.178 56.149-72.171 76.313-13.159 9.152-278.845 9.15-292.005-.004-33.279-23.147-60.803-53.99-79.995-89.953v-21.356c0-2.761 2.239-5 5-5h10c2.761 0 5 2.239 5 5v20c0 2.761 2.239 5 5 5h20c2.761 0 5-2.239 5-5v-50c0-2.761 2.239-5 5-5h50c2.761 0 5 2.239 5 5v60c0 2.761 2.239 5 5 5h30c2.761 0 5-2.239 5-5v-50c0-2.761 2.239-5 5-5h10c2.761 0 5 2.239 5 5v75h20v-100c0-2.761 2.239-5 5-5h20c2.761 0 5 2.239 5 5v75c0 2.761 2.239 5 5 5h20c2.761 0 5-2.239 5-5v-10c0-2.761 2.239-5 5-5h30c2.761 0 5 2.239 5 5v35h30v-25c0-2.761 2.239-5 5-5h60c2.761 0 5-2.239 5-5v-60c0-2.761 2.239-5 5-5h20c2.761 0 5 2.239 5 5v70c0 2.761 2.239 5 5 5z" fill="#269ab1"/><path d="m373.5 216c-5.523 0-10 4.477-10 10v90h-215v-90c0-5.523-4.477-10-10-10s-10 4.477-10 10v180c0 5.523 4.477 10 10 10s10-4.477 10-10v-30h215v30c0 5.523 4.477 10 10 10s10-4.477 10-10v-180c0-5.523-4.477-10-10-10zm-225 140v-20h215v20z" fill="#453d83"/><path d="m300.001 365.5v1c0 5.247-4.253 9.5-9.5 9.5h-73c-5.247 0-9.5-4.253-9.5-9.5v-1c0-5.247 4.253-9.5 9.5-9.5h73c5.247 0 9.5 4.253 9.5 9.5zm20.499-49.5h-73c-5.247 0-9.5 4.253-9.5 9.5v1c0 5.247 4.253 9.5 9.5 9.5h73c5.247 0 9.5-4.253 9.5-9.5v-1c0-5.247-4.253-9.5-9.5-9.5z" fill="#51489a"/><path d="m396 290h-280c-60.751 0-110-49.249-110-110 0-60.751 49.249-110 110-110h280c60.751 0 110 49.249 110 110 0 60.751-49.249 110-110 110z" fill="#51489a"/><path d="m397.017 290h-200c-60.751 0-110-49.249-110-110 0-60.751 49.249-110 110-110h200c60.751 0 110 49.249 110 110 0 60.751-49.249 110-110 110z" fill="#5f55af"/><path d="m395.184 63.185h-278.368c-64.413 0-116.816 52.402-116.816 116.815s52.403 116.815 116.816 116.815h278.369c64.412 0 116.815-52.402 116.815-116.815s-52.403-116.815-116.816-116.815zm0 218.718h-278.368c-56.189 0-101.903-45.713-101.903-101.903s45.713-101.903 101.903-101.903h278.369c56.189 0 101.903 45.713 101.903 101.903s-45.714 101.903-101.904 101.903z" fill="#453d83"/><path d="m423.052 126.132c-16.127 0-30.623 7.125-40.504 18.392-1.947-10.439-11.16-18.392-22.12-18.392h-.147l-.072.001c-6.01.058-11.638 2.453-15.846 6.744-2.355 2.4-4.107 5.234-5.184 8.317l-3.611-5.23c-4.2-6.082-11.122-9.713-18.516-9.713-2.264 0-4.511.341-6.677 1.013-3.906 1.218-7.282 3.402-9.9 6.243-4.119-4.527-10.055-7.374-16.643-7.374-8.214 0-15.416 4.426-19.344 11.017-3.767-2.939-15.564-11.018-31.447-11.018-4.465 0-8.897.653-13.175 1.942-14.183 4.273-24.249 15.68-26.271 29.769-.675 4.702-.407 9.344.706 13.713l-11.317-29.987-.019-.05-.019-.051c-.069-.18-.141-.361-.216-.541-3.695-8.978-12.378-14.794-22.111-14.794h-.009c-9.753.01-18.427 5.835-22.122 14.841-.077.186-.15.373-.221.559l-16.302 42.801c-3.837-2.797-8.488-4.322-13.255-4.322-6.671 0-12.955 2.93-17.241 8.038-.123.146-.217.236-.263.276-.159.142-.606.54-2.261.54-4.889 0-8.867-3.978-8.867-8.866 0-4.889 3.978-8.867 8.867-8.867 1.779 0 3.488.519 4.941 1.5 3.731 2.523 8.086 3.858 12.589 3.858 7.488 0 14.46-3.702 18.65-9.903 6.946-10.279 4.234-24.293-6.045-31.24-8.92-6.028-19.34-9.215-30.135-9.215-29.702 0-53.867 24.165-53.867 53.867s24.165 53.866 53.867 53.866c10.726 0 20.565-3.14 28.717-9.123 2.472 3.354 5.9 6.059 10.074 7.649 2.566.979 5.263 1.477 8.009 1.477 9.275 0 17.725-5.825 21.027-14.494l.348-.913h6.784l.32.849c3.288 8.708 11.748 14.557 21.052 14.557 2.719 0 5.392-.489 7.945-1.452 4.281-1.615 7.89-4.429 10.461-8.099 8.703 6.087 19.482 9.549 30.401 9.549 11.708 0 22.366-4.48 29.937-11.838 3.806 7.043 11.258 11.838 19.81 11.838 6.571 0 12.493-2.831 16.61-7.338 4.117 4.507 10.039 7.338 16.61 7.338 9.729 0 18.036-6.208 21.168-14.869l2.656 3.846c4.473 6.468 11.7 10.325 19.338 10.325 2.329 0 4.645-.354 6.882-1.052 7.768-2.423 13.519-8.699 15.583-16.491 9.877 11.181 24.315 18.242 40.371 18.242 29.702 0 53.867-24.164 53.867-53.866.005-29.704-24.16-53.869-53.863-53.869zm0 62.734c-4.889 0-8.866-3.978-8.866-8.866 0-4.889 3.977-8.867 8.866-8.867s8.867 3.978 8.867 8.867c.001 4.888-3.977 8.866-8.867 8.866z" fill="#ff2ea6"/><path d="m168.952 146.865c-.026-.068-.053-.138-.082-.206-1.382-3.357-4.62-5.526-8.25-5.526h-.009c-3.635.004-6.873 2.18-8.249 5.544-.023.057-.046.113-.067.17l-23.557 61.85c-1.474 3.871.468 8.204 4.339 9.679 3.871 1.477 8.204-.469 9.678-4.339l4.027-10.574h27.494l3.982 10.553c1.134 3.003 3.987 4.854 7.019 4.854.879 0 1.775-.156 2.646-.485 3.875-1.462 5.832-5.789 4.369-9.665zm-16.455 41.596 8.097-21.26 8.023 21.26zm215.431-39.901.586 60.619c0 4.147-2.31 7.502-5.884 8.617-3.502 1.093-7.193-.273-9.409-3.478l-28.667-41.511v38.558c0 4.143-3.357 7.5-7.5 7.5s-7.5-3.357-7.5-7.5v-62.615c0-3.282 2.135-6.184 5.268-7.16 3.137-.974 6.539.197 8.404 2.898l30.083 43.562-.381-39.345c-.04-4.142 3.285-7.532 7.428-7.572h.074c4.108-.001 7.458 3.31 7.498 7.427zm-76.595.072v62.733c0 4.143-3.357 7.5-7.5 7.5s-7.5-3.357-7.5-7.5v-62.733c0-4.143 3.357-7.5 7.5-7.5s7.5 3.358 7.5 7.5zm-176.879 58.7c-1.025 1.222-2.137 2.368-3.306 3.408-5.967 5.315-13.645 8.126-22.201 8.126-21.431 0-38.867-17.436-38.867-38.866 0-21.432 17.436-38.867 38.867-38.867 7.789 0 15.305 2.297 21.736 6.644 3.432 2.319 4.334 6.981 2.015 10.413s-6.982 4.335-10.414 2.015c-3.942-2.663-8.554-4.071-13.338-4.071-13.16 0-23.867 10.707-23.867 23.867s10.707 23.866 23.867 23.866c4.888 0 9.001-1.456 12.227-4.329.629-.56 1.23-1.18 1.788-1.846 2.662-3.173 7.393-3.588 10.566-.926 3.175 2.661 3.589 7.392.927 10.566zm145.693-8.244c-2.046 11.46-13.007 19.777-26.062 19.777-10.494 0-20.744-4.397-27.418-11.763-2.781-3.069-2.548-7.813.521-10.594s7.813-2.548 10.594.521c3.878 4.28 9.973 6.835 16.303 6.835 6.242 0 10.645-3.77 11.295-7.414.878-4.917-5.612-7.877-8.443-8.922-9.718-3.584-18.348-7.426-18.71-7.587-.361-.161-.709-.351-1.041-.566-6.502-4.239-9.852-11.675-8.743-19.403 1.184-8.247 7.219-14.967 15.75-17.537 16.966-5.111 30.934 6.412 31.521 6.904 3.171 2.666 3.58 7.396.915 10.567-2.655 3.159-7.36 3.576-10.531.945-.233-.188-8.559-6.773-17.578-4.054-4.215 1.27-5.062 4.133-5.229 5.305-.124.864-.186 2.944 1.695 4.426 2.156.944 9.379 4.064 17.142 6.928 15.631 5.766 19.557 17.021 18.019 25.632zm162.906-57.956c-21.431 0-38.866 17.436-38.866 38.867s17.436 38.866 38.866 38.866c21.432 0 38.867-17.436 38.867-38.866 0-21.431-17.436-38.867-38.867-38.867zm0 62.734c-13.16 0-23.866-10.706-23.866-23.866s10.706-23.867 23.866-23.867 23.867 10.706 23.867 23.867-10.707 23.866-23.867 23.866z" fill="#fff5f5"/><path d="m243.454 49.76 6.353 11.616c.188.344.471.627.816.816l11.616 6.353c1.423.778 1.423 2.823 0 3.601l-11.616 6.354c-.344.188-.627.471-.816.816l-6.353 11.616c-.778 1.423-2.823 1.423-3.601 0l-6.353-11.616c-.188-.344-.471-.627-.816-.816l-11.616-6.353c-1.423-.778-1.423-2.823 0-3.601l11.616-6.353c.344-.188.627-.471.816-.816l6.353-11.616c.778-1.424 2.823-1.424 3.601-.001z" fill="#ffde91"/><path d="m333.259 118.949-20.093 6.697c-1.056.353-1.885 1.181-2.237 2.238l-6.698 20.093c-1.075 3.225-5.637 3.225-6.712 0l-6.698-20.093c-.352-1.057-1.181-1.885-2.237-2.238l-20.093-6.697c-3.225-1.075-3.225-5.637 0-6.712l20.093-6.698c1.056-.352 1.885-1.181 2.237-2.237l6.698-20.093c1.075-3.226 5.637-3.226 6.712 0l6.698 20.093c.352 1.056 1.181 1.885 2.237 2.237l20.093 6.698c3.225 1.075 3.225 5.637 0 6.712z" fill="#fff5f5"/><path d="m402 421.5v44.813c-41.412 28.802-91.734 45.687-146 45.687s-104.588-16.885-146-45.687v-44.813c0-5.247 4.253-9.5 9.5-9.5h273c5.247 0 9.5 4.253 9.5 9.5z" fill="#ffc14f"/><path d="m148.5 488.402c-13.513-6.261-26.388-13.665-38.5-22.089v-44.813c0-5.247 4.253-9.5 9.5-9.5h29z" fill="#ff9f22"/><path d="m422 425.5v1c0 5.247-4.253 9.5-9.5 9.5h-313c-5.247 0-9.5-4.253-9.5-9.5v-1c0-5.247 4.253-9.5 9.5-9.5h313c5.247 0 9.5 4.253 9.5 9.5z" fill="#fcf2b6"/><path d="m452 406.5v1c0 5.247-4.253 9.5-9.5 9.5h-373c-5.247 0-9.5-4.253-9.5-9.5v-1c0-5.247 4.253-9.5 9.5-9.5h373c5.247 0 9.5 4.253 9.5 9.5z" fill="#ffcd71"/><path d="m185.549 470h140.901v24.778c0 4.398-2.961 8.271-7.224 9.354-17.898 4.547-36.548 7.208-55.727 7.76-2.491.072-4.991-7.226-7.5-7.226s-5.009 7.297-7.5 7.226c-19.209-.553-37.888-3.221-55.812-7.781-4.212-1.072-7.139-4.898-7.139-9.245v-24.866z" fill="#51489a"/><path d="m333.951 470v29.916c-4.937 1.576-9.938 3.007-15 4.287v-26.703h-55.451v34.392c-2.491.072-4.991.108-7.5.108s-5.009-.036-7.5-.108v-34.392h-55.451v26.702c-5.062-1.28-10.063-2.71-15-4.287v-29.915c0-4.143 3.358-7.5 7.5-7.5h140.902c4.143 0 7.5 3.357 7.5 7.5z" fill="#8078bf"/></g></svg>