<?xml version="1.0" encoding="iso-8859-1"?>
<!-- Generator: Adobe Illustrator 19.0.0, SVG Export Plug-In . SVG Version: 6.00 Build 0)  -->
<svg version="1.1" id="Capa_1" xmlns="http://www.w3.org/2000/svg" xmlns:xlink="http://www.w3.org/1999/xlink" x="0px" y="0px"
	 viewBox="0 0 512 512" style="enable-background:new 0 0 512 512;" xml:space="preserve">
<path style="fill:#6C7A88;" d="M42.371,171.512c-21.299,0-38.565,17.266-38.565,38.565v286.699h39.072H256V171.512H42.371z"/>
<path style="fill:#596775;" d="M469.629,171.512H256v325.264h213.122h39.072V210.077
	C508.194,188.778,490.928,171.512,469.629,171.512z"/>
<path style="fill:#8B9BA9;" d="M439.691,142.081H72.309c-16.254,0-29.431,13.176-29.431,29.431v325.264h426.244V171.512
	C469.122,155.257,455.945,142.081,439.691,142.081z"/>
<path style="fill:#6C7A88;" d="M439.691,142.081h-1.015V466.33H42.878v30.446h426.244V171.512
	C469.122,155.257,455.945,142.081,439.691,142.081z"/>
<path style="fill:#FF5368;" d="M324.131,259.806H187.869c-8.496,0-15.384,6.887-15.384,15.384V512h167.031V275.19
	C339.515,266.693,332.627,259.806,324.131,259.806z"/>
<g>
	<path style="fill:#D9435B;" d="M225.554,387.933c-4.205,0-7.611,3.407-7.611,7.612v0.01c0,4.205,3.407,7.606,7.611,7.606
		c4.205,0,7.611-3.412,7.611-7.617C233.166,391.34,229.759,387.933,225.554,387.933z"/>
	<path style="fill:#D9435B;" d="M225.554,300.591c-4.205,0-7.611,3.407-7.611,7.612v0.009c0,4.205,3.407,7.606,7.611,7.606
		c4.205,0,7.611-3.411,7.611-7.616C233.166,303.998,229.759,300.591,225.554,300.591z"/>
	<path style="fill:#D9435B;" d="M225.554,358.819c-4.205,0-7.611,3.407-7.611,7.611v0.01c0,4.205,3.407,7.606,7.611,7.606
		c4.205,0,7.611-3.412,7.611-7.617S229.759,358.819,225.554,358.819z"/>
	<path style="fill:#D9435B;" d="M225.554,475.275c-4.205,0-7.611,3.407-7.611,7.612v0.01c0,4.205,3.407,7.606,7.611,7.606
		c4.205,0,7.611-3.412,7.611-7.617S229.759,475.275,225.554,475.275z"/>
	<path style="fill:#D9435B;" d="M225.554,417.047c-4.205,0-7.611,3.407-7.611,7.612v0.01c0,4.205,3.407,7.606,7.611,7.606
		c4.205,0,7.611-3.412,7.611-7.617C233.166,420.454,229.759,417.047,225.554,417.047z"/>
	<path style="fill:#D9435B;" d="M225.554,446.161c-4.205,0-7.611,3.407-7.611,7.612v0.01c0,4.205,3.407,7.606,7.611,7.606
		c4.205,0,7.611-3.412,7.611-7.617S229.759,446.161,225.554,446.161z"/>
	<path style="fill:#D9435B;" d="M225.554,329.705c-4.205,0-7.611,3.407-7.611,7.611v0.01c0,4.205,3.407,7.606,7.611,7.606
		c4.205,0,7.611-3.412,7.611-7.617S229.759,329.705,225.554,329.705z"/>
	<path style="fill:#D9435B;" d="M286.446,329.7c-4.205,0-7.611,3.412-7.611,7.617s3.407,7.612,7.611,7.612
		c4.205,0,7.612-3.407,7.612-7.612v-0.01C294.057,333.102,290.651,329.7,286.446,329.7z"/>
	<path style="fill:#D9435B;" d="M286.446,300.586c-4.205,0-7.611,3.412-7.611,7.617c0,4.205,3.407,7.611,7.611,7.611
		c4.205,0,7.612-3.407,7.612-7.611v-0.01C294.057,303.988,290.651,300.586,286.446,300.586z"/>
	<path style="fill:#D9435B;" d="M286.446,475.27c-4.205,0-7.611,3.411-7.611,7.616c0,4.205,3.407,7.611,7.611,7.611
		c4.205,0,7.612-3.407,7.612-7.611v-0.009C294.057,478.672,290.651,475.27,286.446,475.27z"/>
	<path style="fill:#D9435B;" d="M286.446,358.814c-4.205,0-7.611,3.412-7.611,7.617s3.407,7.612,7.611,7.612
		c4.205,0,7.612-3.407,7.612-7.612v-0.01C294.057,362.216,290.651,358.814,286.446,358.814z"/>
	<path style="fill:#D9435B;" d="M286.446,387.928c-4.205,0-7.611,3.412-7.611,7.617c0,4.205,3.407,7.611,7.611,7.611
		c4.205,0,7.612-3.407,7.612-7.611v-0.01C294.057,391.33,290.651,387.928,286.446,387.928z"/>
	<path style="fill:#D9435B;" d="M286.446,446.155c-4.205,0-7.611,3.412-7.611,7.617s3.407,7.612,7.611,7.612
		c4.205,0,7.612-3.407,7.612-7.612v-0.01C294.057,449.558,290.651,446.155,286.446,446.155z"/>
	<path style="fill:#D9435B;" d="M286.446,417.042c-4.205,0-7.611,3.412-7.611,7.617c0,4.205,3.407,7.611,7.611,7.611
		c4.205,0,7.612-3.407,7.612-7.611v-0.01C294.057,420.444,290.651,417.042,286.446,417.042z"/>
	<polygon style="fill:#D9435B;" points="302.684,262.85 302.684,481.554 263.612,481.554 263.612,262.85 248.389,262.85 
		248.389,481.554 172.485,481.554 172.485,512 248.389,512 263.612,512 339.515,512 339.515,262.85 	"/>
</g>
<path style="fill:#FFF9EB;" d="M125.59,512V286.7c0-33.63,27.262-60.892,60.892-60.892h139.037c33.63,0,60.892,27.262,60.892,60.892
	V512h-53.28V293.296c0-7.847-6.361-14.208-14.208-14.208H193.078c-7.847,0-14.208,6.361-14.208,14.208V512H125.59z"/>
<g>
	<rect x="125.59" y="481.554" style="fill:#D3CDBF;" width="53.28" height="30.446"/>
	<path style="fill:#D3CDBF;" d="M355.964,286.7v194.854H333.13V512h53.28V286.7c0-33.63-27.262-60.892-60.892-60.892l0,0
		c0,14.49,7.031,27.911,18.519,36.741C351.285,268.12,355.964,276.874,355.964,286.7z"/>
</g>
<path style="fill:#35404A;" d="M386.41,88.801h-49.247C336.618,44.416,300.5,7.611,256,7.611s-80.618,36.804-81.163,81.189H125.59
	c-29.304,0-53.28,23.976-53.28,53.28s23.976,53.28,53.28,53.28H386.41c29.304,0,53.28-23.976,53.28-53.28
	S415.715,88.801,386.41,88.801z"/>
<g>
	<path style="fill:#FFCF5D;" d="M136.196,131.332c2.971,2.972,7.79,2.974,10.762-0.002c2.973-2.972,2.973-7.79,0-10.762
		c-11.868-11.869-31.183-11.871-43.052,0.002c-11.87,11.869-11.87,31.184,0,43.051c5.935,5.935,13.73,8.901,21.525,8.901
		c7.796,0,15.591-2.967,21.526-8.901c2.973-2.972,2.973-7.792,0-10.763c-2.972-2.974-7.791-2.974-10.762,0
		c-5.934,5.935-15.591,5.933-21.525,0c-5.935-5.937-5.935-15.591,0-21.526C120.603,125.396,130.261,125.398,136.196,131.332z"/>
	<path style="fill:#FFCF5D;" d="M187.081,116.575c-1.115-2.97-3.954-4.935-7.125-4.935c-3.171,0-6.013,1.967-7.125,4.935
		l-17.124,45.665c-1.477,3.937,0.52,8.323,4.453,9.798c3.938,1.473,8.323-0.518,9.8-4.454l1.002-2.672h17.992l1.003,2.672
		c1.145,3.057,4.044,4.939,7.125,4.939c0.888,0,1.791-0.154,2.672-0.486c3.934-1.475,5.928-5.861,4.452-9.798L187.081,116.575z
		 M176.667,149.691l3.288-8.767l3.286,8.767L176.667,149.691L176.667,149.691z"/>
	<path style="fill:#FFCF5D;" d="M231.476,134.47c-2.099,0-3.806-1.707-3.806-3.806c0-2.097,1.707-3.804,3.806-3.804h5.327
		c4.204,0,7.61-3.407,7.61-7.611s-3.407-7.609-7.61-7.609h-5.327c-10.492,0-19.026,8.535-19.026,19.025
		c0,10.492,8.534,19.027,19.026,19.027c2.099,0,3.806,1.709,3.806,3.806s-1.707,3.806-3.806,3.806H220.06
		c-4.203,0-7.609,3.405-7.609,7.609c0,4.205,3.407,7.611,7.609,7.611h11.416c10.492,0,19.027-8.535,19.027-19.027
		S241.967,134.47,231.476,134.47z"/>
	<path style="fill:#FFCF5D;" d="M284.941,126.86c4.204,0,7.61-3.407,7.61-7.611s-3.407-7.609-7.61-7.609h-22.324
		c-4.203,0-7.609,3.405-7.609,7.609s3.407,7.611,7.609,7.611h3.551v30.442h-3.551c-4.203,0-7.609,3.405-7.609,7.609
		c0,4.205,3.407,7.611,7.609,7.611h22.324c4.204,0,7.61-3.407,7.61-7.611c0-4.205-3.407-7.609-7.61-7.609h-3.551V126.86H284.941z"/>
	<path style="fill:#FFCF5D;" d="M342.423,111.639c-4.204,0-7.61,3.405-7.61,7.609v22.416l-19.739-26.915
		c-1.947-2.652-5.377-3.756-8.505-2.731c-3.128,1.023-5.242,3.943-5.242,7.231v45.665c0,4.205,3.407,7.609,7.609,7.609
		s7.61-3.405,7.61-7.609v-22.417l19.738,26.915c1.46,1.994,3.76,3.11,6.139,3.11c0.79,0,1.586-0.123,2.367-0.379
		c3.129-1.023,5.244-3.943,5.244-7.233v-45.663C350.033,115.046,346.626,111.639,342.423,111.639z"/>
	<path style="fill:#FFCF5D;" d="M386.553,111.639c-16.785,0-30.442,13.655-30.442,30.44c0,16.787,13.657,30.444,30.442,30.444
		c16.786,0,30.443-13.657,30.443-30.444C416.996,125.294,403.339,111.639,386.553,111.639z M386.553,157.302
		c-8.393,0-15.22-6.829-15.22-15.223c0-8.391,6.828-15.219,15.22-15.219s15.221,6.829,15.221,15.219
		C401.774,150.474,394.946,157.302,386.553,157.302z"/>
</g>
<path style="fill:#D9435B;" d="M256,38.057c-27.979,0-50.742,22.763-50.742,50.742h101.485
	C306.742,60.821,283.979,38.057,256,38.057z"/>
<path style="fill:#FF5368;" d="M386.41,81.189h-41.94C340.596,35.774,302.4,0,256,0s-84.596,35.774-88.47,81.189h-41.94
	c-33.576,0-60.892,27.316-60.892,60.892s27.316,60.892,60.892,60.892H386.41c33.576,0,60.892-27.316,60.892-60.892
	S419.986,81.189,386.41,81.189z M256,15.223c38.002,0,69.363,28.958,73.184,65.966h-15.343
	C310.098,52.598,285.596,30.446,256,30.446s-54.098,22.153-57.841,50.743h-15.343C186.637,44.181,217.998,15.223,256,15.223z
	 M298.445,81.189h-84.89c3.607-20.163,21.26-35.52,42.445-35.52S294.838,61.026,298.445,81.189z M386.41,187.75H125.59
	c-25.182,0-45.669-20.487-45.669-45.669s20.487-45.669,45.669-45.669H386.41c25.182,0,45.669,20.487,45.669,45.669
	S411.592,187.75,386.41,187.75z"/>
<g>
</g>
<g>
</g>
<g>
</g>
<g>
</g>
<g>
</g>
<g>
</g>
<g>
</g>
<g>
</g>
<g>
</g>
<g>
</g>
<g>
</g>
<g>
</g>
<g>
</g>
<g>
</g>
<g>
</g>
</svg>
