<svg height="512pt" viewBox="-16 0 512 512" width="512pt" xmlns="http://www.w3.org/2000/svg"><path d="m180 512 14.492188-125.070312-44.492188-115.929688h-81.210938l-68.789062 68.789062v172.210938h93.269531l-3.828125-35.070312 35.011719 35.070312zm0 0" fill="#6e6e6e"/><path d="m381.210938 271h-81.210938l-43.578125 108.613281 13.578125 132.386719h55.539062l35.019532-35.070312-3.832032 35.070312h93.273438v-172.210938zm0 0" fill="#5a5a5a"/><path d="m300 271-13.199219 105.300781-61.800781-18.300781-61.800781 18.300781-13.199219-105.300781zm0 0" fill="#ede9e8"/><path d="m225 271h75l-13.199219 105.300781-61.800781-18.300781zm0 0" fill="#dfd7d5"/><path d="m330 106v90c0 57.898438-47.101562 105-105 105s-105-47.101562-105-105v-90zm0 0" fill="#fed2a4"/><path d="m330 106v90c0 57.898438-47.101562 105-105 105v-195zm0 0" fill="#ffbd86"/><path d="m329.097656 101.199219h-208.195312l33.296875-101.199219h141.601562zm0 0" fill="#b35f49"/><path d="m360 241h-138.867188l15-30h123.867188zm0 0" fill="#99503d"/><path d="m435 241h-45v-30h45c8.277344 0 15-6.722656 15-15s-6.722656-15-15-15c-24.8125 0-45-20.1875-45-45s20.1875-45 45-45h45v30h-45c-8.277344 0-15 6.722656-15 15s6.722656 15 15 15c24.8125 0 45 20.1875 45 45s-20.1875 45-45 45zm0 0" fill="#d2c5c2"/><path d="m360.558594 386.929688-35.019532 125.070312h31.1875l32.714844-116.929688zm0 0" fill="#444"/><path d="m60.558594 395.070312 32.710937 116.929688h31.183594l-35.011719-125.070312zm0 0" fill="#5a5a5a"/><path d="m286.800781 376.300781-4.203125 34.5-12.597656 101.199219h-90l-12.597656-101.199219-4.203125-34.5 61.800781-48.300781zm0 0" fill="#5a5a5a"/><path d="m225 328 61.800781 48.300781-4.203125 34.5-12.597656 101.199219h-45zm0 0" fill="#444"/><path d="m329.097656 101.199219h-104.097656v-101.199219h70.800781zm0 0" fill="#99503d"/><path d="m60 91h330v30h-330zm0 0" fill="#c6715a"/><path d="m225 91h165v30h-165zm0 0" fill="#b35f49"/><path d="m270 196c0 24.898438-20.097656 45-45 45s-45-20.101562-45-45h30c0 8.398438 6.597656 15 15 15s15-6.601562 15-15zm0 0" fill="#f6a96c"/><path d="m225 241v-30c8.402344 0 15-6.601562 15-15h30c0 24.898438-20.097656 45-45 45zm0 0" fill="#ea9b58"/></svg>