<svg height="512" viewBox="0 0 64 64" width="512" xmlns="http://www.w3.org/2000/svg"><g id="flat"><path d="m38 15a11.528 11.528 0 0 0 1-4 8 8 0 1 0 -8 8h10z" fill="#8ec13f"/><path d="m45 8h12v11h-12z" fill="#ffd782" transform="matrix(-1 0 0 -1 102 27)"/><path d="m48 12h2v2h-2z" fill="#394d5c"/><path d="m45 23h12v16h-12z" fill="#195c85" transform="matrix(-1 0 0 -1 102 62)"/><path d="m41 39h16v6h-16z" fill="#4f97d5" transform="matrix(-1 0 0 -1 98 84)"/><path d="m57 29v16h-16v4h16a4 4 0 0 0 4-4v-16a2 2 0 0 0 -2-2 2 2 0 0 0 -2 2z" fill="#143441"/><path d="m37 39h4a0 0 0 0 1 0 0v14a4 4 0 0 1 -4 4 0 0 0 0 1 0 0v-18a0 0 0 0 1 0 0z" fill="#ffd782" transform="matrix(-1 0 0 -1 78 96)"/><path d="m33 57h8v4h-8z" fill="#394d5c" transform="matrix(-1 0 0 -1 74 118)"/><circle cx="47" cy="59" fill="#143441" r="2"/><circle cx="56" cy="59" fill="#143441" r="2"/><path d="m53 53v-4h-4v4a4 4 0 0 0 -4 4h12a4 4 0 0 0 -4-4z" fill="#394d5c"/><path d="m62 9a2.047 2.047 0 0 0 -1-2v-.915a3.058 3.058 0 0 0 -2.852-3.085 2.667 2.667 0 0 0 -2.148 1 2.5 2.5 0 0 0 -4 0 2.5 2.5 0 0 0 -4 0 3.211 3.211 0 0 0 -2-1 3 3 0 0 0 -3 3.161 3.114 3.114 0 0 0 3.17 2.839h6.83v6h7a2 2 0 0 0 2-2z" fill="#394d5c"/><path d="m13 31v-12l10-10v-6h-20v58h19v-26h2a4 4 0 0 0 4-4z" fill="#4f97d5"/><path d="m22 52h11v9h-11z" fill="#87cee9"/><path d="m22 48a4 4 0 0 1 4 4 0 0 0 0 1 0 0h-4a0 0 0 0 1 0 0v-4a0 0 0 0 1 0 0z" fill="#da1c4b"/><path d="m28 49a2 2 0 0 1 2 2v1a0 0 0 0 1 0 0h-4a0 0 0 0 1 0 0v-1a2 2 0 0 1 2-2z" fill="#b11e48"/><circle cx="31" cy="48" fill="#da1c4b" r="2"/><path d="m25.5 40.379h2v4.243h-2z" fill="#7fcac9" transform="matrix(.707 -.707 .707 .707 -22.29 31.186)"/><path d="m28.5 36.964h2v7.071h-2z" fill="#7fcac9" transform="matrix(.707 -.707 .707 .707 -19.997 32.722)"/><path d="m9 19h4v12h-4z" fill="#ffd782"/><circle cx="11" cy="17" fill="#da1c4b" r="3"/><path d="m41 27h-12a2 2 0 0 1 -2-2 2 2 0 0 1 2-2h12z" fill="#ffd782"/><path d="m26 27a2 2 0 0 1 2 2v2a0 0 0 0 1 0 0h-4a0 0 0 0 1 0 0v-2a2 2 0 0 1 2-2z" fill="#da1c4b"/><path d="m13 27h2a4 4 0 0 1 4 4 0 0 0 0 1 0 0h-6a0 0 0 0 1 0 0v-4a0 0 0 0 1 0 0z" fill="#f9bb4b"/><path d="m3 3h20v6h-20z" fill="#2d75bb"/><path d="m41 23h7a2 2 0 0 1 2 2 2 2 0 0 1 -2 2h-7a0 0 0 0 1 0 0v-4a0 0 0 0 1 0 0z" fill="#4f97d5"/><path d="m32 10h-2a1 1 0 0 1 0-2h4v-2h-2v-2h-2v2a3 3 0 0 0 0 6h2a1 1 0 0 1 0 2h-4v2h2v2h2v-2a3 3 0 0 0 0-6z" fill="#fcf05a"/><path d="m3 55h19v6h-19z" fill="#2d75bb"/><circle cx="10" cy="31" fill="#87cee9" r="3"/></g></svg>