<svg id="icons" enable-background="new 0 0 64 64" height="512" viewBox="0 0 64 64" width="512" xmlns="http://www.w3.org/2000/svg"><path d="m2.501 7.792h12v.98h-12z" fill="#da4453"/><path d="m8.501 2.772c-3.32 0-6 2.69-6 6 0 3.311 2.68 6 6 6 3.311 0 6-2.689 6-6 0-3.309-2.689-6-6-6z" fill="#da4453"/><path d="m8.501 1.792c-3.32 0-6 2.69-6 6 0 3.311 2.68 6 6 6 3.311 0 6-2.689 6-6 0-3.31-2.689-6-6-6z" fill="#ed5565"/><path d="m9.812 7.982.309 1.81-1.62-.85-1.63.85.311-1.81-1.311-1.28 1.811-.26.819-1.65.811 1.65 1.819.26z" fill="#ffce54"/><path d="m2.207 42.135c-.389.389-.389 1.025 0 1.414l3.536 3.536c.389.389 1.025.389 1.414 0l7.776-7.776c.389-.389.389-1.025 0-1.414l-3.536-3.535c-.389-.389-1.025-.389-1.414 0z" fill="#a0d468"/><path d="m61.793 10.689c.389-.389.389-1.025 0-1.414l-7.775-7.776c-.389-.389-1.025-.389-1.414 0l-3.536 3.536c-.389.389-.389 1.025 0 1.414l7.775 7.775c.389.389 1.025.389 1.414 0z" fill="#a0d468"/><path d="m9.631 39.662c.59.58.59 1.53 0 2.12-.58.59-1.531.59-2.121 0s-.59-1.54 0-2.12c.59-.59 1.541-.59 2.121 0z" fill="#8cc152"/><path d="m8.5 21.792c1.66 0 3 1.34 3 3s-1.34 3-3 3c-1.65 0-3-1.34-3-3s1.35-3 3-3z" fill="#ffce54"/><path d="m56.49 6.802c.58.59.58 1.54 0 2.12-.59.59-1.54.59-2.12 0-.59-.58-.59-1.53 0-2.12.58-.59 1.53-.59 2.12 0z" fill="#8cc152"/><path d="m55.55 20.792c1.66 0 3 1.34 3 3s-1.34 3-3 3c-1.649 0-2.999-1.34-2.999-3s1.349-3 2.999-3z" fill="#ffce54"/><path d="m49.5 39.812h12v.98h-12z" fill="#da4453"/><path d="m55.5 34.792c-3.32 0-6 2.69-6 6 0 3.311 2.68 6 6 6 3.311 0 6-2.689 6-6 0-3.31-2.689-6-6-6z" fill="#da4453"/><path d="m55.5 33.812c-3.32 0-6 2.69-6 6 0 3.311 2.68 6 6 6 3.311 0 6-2.689 6-6 0-3.31-2.689-6-6-6z" fill="#ed5565"/><path d="m56.811 40.002.309 1.81-1.62-.85-1.63.85.311-1.81-1.311-1.28 1.811-.26.819-1.65.811 1.65 1.819.26z" fill="#ffce54"/><path d="m47.5 15.792v6l-4-4s-5 3-11 3-11-3-11-3l-4 4v-5c0-7.19 5.811-13 13-13h10v5c3.87 0 7 3.13 7 7z" fill="#965353"/><path d="m47.5 21.792v-6c0-3.87-3.13-7-7-7v-5h-4v5c0 2.209 1.791 4 4 4 1.654 0 3 1.346 3 3v2z" fill="#844747"/><path d="m53.5 54.792v7c0 .55-.449 1-1 1h-40c-.55 0-1-.45-1-1v-7c0-4.42 3.58-8 8-8h6l4 2 3-1 3 1 4-2h6c4.42 0 8 3.58 8 8z" fill="#e6e9ed"/><path d="m45.5 46.792h-4.002c4.42 0 8 3.58 8 8v7c0 .55-.449 1-1 1h4.002c.551 0 1-.45 1-1v-7c0-4.42-3.58-8-8-8z" fill="#ccd1d9"/><path d="m39.5 41.062v5.73l-4 2-3-1-3 1-4-2v-5.73c2.09 1.101 4.471 1.73 7 1.73 2.53 0 4.91-.63 7-1.73z" fill="#f5f7fa"/><path d="m47.5 21.792v6c0 5.76-3.24 10.76-8 13.27-2.09 1.101-4.47 1.73-7 1.73-2.529 0-4.91-.63-7-1.73-4.76-2.51-8-7.51-8-13.27v-6l4-4s5 3 11 3 11-3 11-3z" fill="#eac6bb"/><path d="m43.5 17.792-.002.001v9.999c0 5.76-3.24 10.76-8 13.27-1.529.805-3.215 1.355-4.999 1.594.655.088 1.321.137 2.001.137 2.53 0 4.91-.63 7-1.73 4.76-2.51 8-7.51 8-13.27v-6z" fill="#d3b1a9"/><path d="m32.53 53.792c-.553 0-1.005-.447-1.005-1s.442-1 .994-1h.011c.552 0 1 .447 1 1s-.448 1-1 1z" fill="#f5f7fa"/><path d="m32.53 58.792c-.553 0-1.005-.447-1.005-1s.442-1 .994-1h.011c.552 0 1 .447 1 1s-.448 1-1 1z" fill="#f5f7fa"/><g fill="#8cc152"><path d="m27.5 26.792c-.553 0-1-.447-1-1v-1c0-.553.447-1 1-1s1 .447 1 1v1c0 .553-.447 1-1 1z"/><path d="m27.5 32.792c-.553 0-1-.447-1-1v-1c0-.553.447-1 1-1s1 .447 1 1v1c0 .553-.447 1-1 1z"/><path d="m37.5 26.792c-.553 0-1-.447-1-1v-1c0-.553.447-1 1-1s1 .447 1 1v1c0 .553-.447 1-1 1z"/><path d="m37.5 32.792c-.553 0-1-.447-1-1v-1c0-.553.447-1 1-1s1 .447 1 1v1c0 .553-.447 1-1 1z"/><path d="m29.5 26.792h-4c-.553 0-1-.447-1-1s.447-1 1-1h4c.553 0 1 .447 1 1s-.447 1-1 1z"/><path d="m29.501 31.792c-.294 0-.584-.128-.782-.375l-4-5c-.345-.432-.274-1.061.156-1.406.433-.346 1.061-.274 1.406.156l4 5c.345.432.274 1.061-.156 1.406-.185.148-.405.219-.624.219z"/><path d="m29.5 31.792h-4c-.553 0-1-.447-1-1s.447-1 1-1h4c.553 0 1 .447 1 1s-.447 1-1 1z"/><path d="m39.5 26.792h-4c-.553 0-1-.447-1-1s.447-1 1-1h4c.553 0 1 .447 1 1s-.447 1-1 1z"/><path d="m39.501 31.792c-.294 0-.584-.128-.782-.375l-4-5c-.345-.432-.274-1.061.156-1.406.432-.346 1.061-.274 1.406.156l4 5c.345.432.274 1.061-.156 1.406-.185.148-.405.219-.624.219z"/><path d="m39.5 31.792h-4c-.553 0-1-.447-1-1s.447-1 1-1h4c.553 0 1 .447 1 1s-.447 1-1 1z"/></g></svg>