<svg height="512" viewBox="0 0 128 128" width="512" xmlns="http://www.w3.org/2000/svg"><g><path d="m18.044 49.354h79.308a0 0 0 0 1 0 0v11.955a8 8 0 0 1 -8 8h-63.308a8 8 0 0 1 -8-8v-11.955a0 0 0 0 1 0 0z" fill="#17ace8" transform="matrix(.866 .5 -.5 .866 37.396 -20.9)"/><path d="m36.267 31.159h90.062a0 0 0 0 1 0 0v25.96a0 0 0 0 1 0 0h-98.062a0 0 0 0 1 0 0v-17.96a8 8 0 0 1 8-8z" fill="#0d70b2" transform="matrix(.866 .5 -.5 .866 32.426 -32.735)"/><path d="m91.051 80.871a8.127 8.127 0 0 1 -.574.848c.022.013.04.028.061.04a12.98 12.98 0 0 0 17.731-4.751l-11.241-6.49z" fill="#fedb41"/><path d="m104.207 59.675a4.98 4.98 0 1 0 6.8-1.823 4.98 4.98 0 0 0 -6.8 1.823z" fill="#00ddc1"/><path d="m44.627 53.537a1.74 1.74 0 0 1 -.873-.235l-14.344-8.282a1.75 1.75 0 1 1 1.75-3.031l14.34 8.281a1.751 1.751 0 0 1 -.877 3.267z" fill="#e1e4fb"/><path d="m1.75 57.373h5.25a6 6 0 0 1 6 6v47.317a6 6 0 0 1 -6 6h-5.25a0 0 0 0 1 0 0v-59.317a0 0 0 0 1 0 0z" fill="#0d70b2"/><path d="m13 67.381h11.25v36h-11.25z" fill="#c5c9f7"/><path d="m53.567 68.467-5.051 8.612a8.034 8.034 0 0 1 -6.9 3.953h-17.366v12h17.364a20.078 20.078 0 0 0 17.252-9.881l5.093-8.684z" fill="#e1e4fb"/></g></svg>