<svg id="Layer_5" enable-background="new 0 0 64 64" height="512" viewBox="0 0 64 64" width="512" xmlns="http://www.w3.org/2000/svg"><g><g><g><path d="m62 40v4c0 1.1-.9 2-2 2h-4v-2c0-1.1-.9-2-2-2v-4h6c1.1 0 2 .9 2 2z" fill="#ccd1d9"/></g><g><path d="m54 42h-50c-1.1 0-2 .9-2 2v16c0 1.1.9 2 2 2h50c1.1 0 2-.9 2-2v-14-2c0-1.1-.9-2-2-2z" fill="#aab2bd"/></g><g><path d="m20 62h-14v-16h6c-1.26 1.67-2 3.75-2 6 0 5.52 4.48 10 10 10z" fill="#e6e9ed"/></g><g><path d="m52 46v16h-32c5.52 0 10-4.48 10-10 1.82 2.43 4.73 4 8 4 5.52 0 10-4.48 10-10z" fill="#e6e9ed"/></g><g><path d="m39 46h9c0 5.52-4.48 10-10 10-3.27 0-6.18-1.57-8-4 0-2.25-.74-4.33-2-6h8.93z" fill="#fcd770"/></g><g><path d="m20 46h8c1.26 1.67 2 3.75 2 6 0 5.52-4.48 10-10 10s-10-4.48-10-10c0-2.25.74-4.33 2-6z" fill="#fcd770"/></g><g><circle cx="60" cy="22" fill="#ff826e" r="2"/></g><g><path d="m12.17 8.83c-.72-.73-1.17-1.73-1.17-2.83 0-2.21 1.79-4 4-4h28c1.1 0 2.1.45 2.83 1.17.72.73 1.17 1.73 1.17 2.83 0 2.21-1.79 4-4 4h-28c-1.1 0-2.1-.45-2.83-1.17z" fill="#fcd770"/></g><g><path d="m54 38v4h-50v-28c0-2.21 1.79-4 4-4h7 28 7c2.21 0 4 1.79 4 4z" fill="#69d6f4"/></g><g><path d="m22 15v3h-14v-3c0-.55.45-1 1-1h12c.55 0 1 .45 1 1z" fill="#fc6e51"/></g><g><path d="m36 34v4h-14v-1-3z" fill="#fc6e51"/></g><g><path d="m50 15v3h-14v-4h13c.55 0 1 .45 1 1z" fill="#fc6e51"/></g><g><path d="m36 34v-16h14v19c0 .55-.45 1-1 1h-13z" fill="#ff826e"/></g><g><path d="m22 34v-16-3-1h14v4 16z" fill="#ff826e"/></g><g><path d="m8 37v-19h14v16 3c0 .55-.45 1-1 1h-12c-.55 0-1-.45-1-1z" fill="#ff826e"/></g></g><g><path d="m9 39h12 16 12c1.103 0 2-.897 2-2v-22c0-1.103-.897-2-2-2h-12-16-12c-1.103 0-2 .897-2 2v22c0 1.103.897 2 2 2zm0-2v-18h12v18zm14 0v-2h12v2zm14 0v-18h12l.001 18zm12-22v2h-12v-2zm-14 0v18h-12v-18zm-14 0v2h-12v-2z"/><path d="m11 23v2h5.856l-4.73 8.514 1.748.972 5.126-9.227v-2.259z"/><path d="m39 23v2h5.856l-4.73 8.514 1.748.972 5.126-9.227v-2.259z"/><path d="m26.126 29.514 1.748.972 5.126-9.227v-2.259h-8v2h5.856z"/><path d="m61 37.184v-12.368c1.161-.414 2-1.514 2-2.816 0-1.654-1.346-3-3-3s-3 1.346-3 3c0 1.302.839 2.402 2 2.816v12.184h-4v-23c0-2.757-2.243-5-5-5h-3.026c.635-.838 1.026-1.87 1.026-3 0-2.757-2.243-5-5-5h-28c-2.757 0-5 2.243-5 5 0 1.13.391 2.162 1.026 3h-3.026c-2.757 0-5 2.243-5 5v27.184c-1.161.414-2 1.514-2 2.816v16c0 1.654 1.346 3 3 3h50c1.654 0 3-1.346 3-3v-13h3c1.654 0 3-1.346 3-3v-4c0-1.302-.839-2.402-2-2.816zm-1-16.184c.551 0 1 .449 1 1s-.449 1-1 1-1-.449-1-1 .449-1 1-1zm-48-15c0-1.654 1.346-3 3-3h28c1.654 0 3 1.346 3 3s-1.346 3-3 3h-28c-1.654 0-3-1.346-3-3zm-4 5h7 28 7c1.654 0 3 1.346 3 3v27h-48v-27c0-1.654 1.346-3 3-3zm-1 50v-14h3.202c-.788 1.537-1.202 3.236-1.202 5 0 3.72 1.861 7.008 4.695 9zm9-11c0 1.654 1.346 3 3 3h2c.551 0 1 .449 1 1s-.449 1-1 1h-3v-1h-2v3h3v2h2v-2c1.654 0 3-1.346 3-3s-1.346-3-3-3h-2c-.551 0-1-.449-1-1s.449-1 1-1h3v1h2v-3h3.477c.994 1.481 1.523 3.198 1.523 5 0 4.962-4.038 9-9 9s-9-4.038-9-9c0-1.802.529-3.519 1.523-5h6.477c-1.654 0-3 1.346-3 3zm24-2c0 .551-.449 1-1 1h-3v-1h-2v3h3v2h2v-2c1.654 0 3-1.346 3-3 0-.352-.072-.686-.184-1h5.125c-.5 4.493-4.317 8-8.941 8-2.761 0-5.296-1.234-7.015-3.38-.055-1.628-.456-3.193-1.187-4.62h7.135 2.067c.551 0 1 .449 1 1zm-9.239 6.272c1.985 1.747 4.522 2.728 7.239 2.728 5.728 0 10.442-4.402 10.949-10h2.051v14h-24.695c2.241-1.575 3.872-3.958 4.456-6.728zm24.239 5.728c0 .551-.449 1-1 1h-1v-16h-14-2.067-31.933v16h-1c-.551 0-1-.449-1-1v-16c0-.551.449-1 1-1h50c.551 0 1 .449 1 1zm6-16c0 .551-.449 1-1 1h-3v-1c0-1.302-.839-2.402-2-2.816v-2.184h5c.551 0 1 .449 1 1z"/><path d="m14 5h2v2h-2z"/><path d="m18 5h22v2h-22z"/><path d="m42 5h2v2h-2z"/></g></g></svg>