<svg id="Capa_1" enable-background="new 0 0 512 512" height="512" viewBox="0 0 512 512" width="512" xmlns="http://www.w3.org/2000/svg"><g><path d="m290.615 380v72h66.385c16.569 0 30 13.431 30 30v20c0 5.523-4.477 10-10 10h-242c-5.523 0-10-4.477-10-10v-20c0-16.569 13.431-30 30-30h66v-72z" fill="#916a67"/><path d="m387 482v20c0 5.52-4.48 10-10 10h-121v-132h34.62v72h66.38c16.57 0 30 13.43 30 30z" fill="#704c55"/><circle cx="256" cy="195" fill="#dfe7f4" r="195"/><path d="m451 195c0 107.52-87.48 195-195 195v-390c107.52 0 195 87.48 195 195z" fill="#c7cfe1"/><circle cx="256" cy="195" fill="#f0f7ff" r="165"/><path d="m421 195c0 90.98-74.02 165-165 165v-330c90.98 0 165 74.02 165 165z" fill="#dfe7f4"/><path d="m376 180h-94.019l29.437-50.984c15.51-26.862-.239-61.073-30.738-66.749-31.636-5.886-64.378-.257-92.189 15.853-7.162 4.148-9.61 13.313-5.472 20.48l47 81.4h-58.875c-31.253 0-52.773 31.022-42.336 60.269 10.74 30.095 31.935 55.526 59.68 71.608 7.172 4.158 16.37 1.698 20.512-5.477l47-81.402 29.407 50.932c15.416 26.7 52.799 30.465 73.01 6.94 21.011-24.456 32.583-55.662 32.583-87.87 0-8.284-6.716-15-15-15z" fill="#79d9ff"/><path d="m391 195c0 32.21-11.57 63.41-32.58 87.87-20.21 23.53-57.6 19.76-73.01-6.94l-29.41-50.93v-165.01c8.23 0 16.49.76 24.68 2.28 30.5 5.67 46.25 39.88 30.74 66.75l-29.44 50.98h94.02c8.28 0 15 6.72 15 15z" fill="#5cb4ff"/><circle cx="256" cy="195" fill="#5cb4ff" r="45"/><path d="m301 195c0 24.81-20.19 45-45 45v-90c24.81 0 45 20.19 45 45z" fill="#489cff"/></g></svg>