<?xml version="1.0" encoding="iso-8859-1"?>
<!-- Generator: Adobe Illustrator 19.0.0, SVG Export Plug-In . SVG Version: 6.00 Build 0)  -->
<svg version="1.1" id="Capa_1" xmlns="http://www.w3.org/2000/svg" xmlns:xlink="http://www.w3.org/1999/xlink" x="0px" y="0px"
	 viewBox="0 0 512.001 512.001" style="enable-background:new 0 0 512.001 512.001;" xml:space="preserve">
<path style="fill:#F0EEEE;" d="M205.259,363.314l105.854-0.182c41.621-0.072,75.42,33.611,75.491,75.232l0.113,65.694L130.14,504.5
	l-0.113-65.694C129.955,397.185,163.638,363.386,205.259,363.314z"/>
<path style="fill:#D9D4D4;" d="M311.113,363.133l-22.632,0.039c41.621-0.072,75.419,33.611,75.491,75.232l0.113,65.695l22.632-0.039
	l-0.113-65.695C386.533,396.744,352.734,363.061,311.113,363.133z"/>
<path style="fill:#696970;" d="M131.359,424.589h253.942c-1.986-10.641-6.199-20.492-12.15-29.052h-229.54
	C137.626,404.093,133.373,413.943,131.359,424.589z"/>
<path style="fill:#484655;" d="M350.492,395.537c5.958,8.558,10.178,18.409,12.171,29.052h22.638
	c-1.986-10.641-6.199-20.492-12.15-29.051l0,0h-22.659V395.537z"/>
<rect x="130.101" y="452.01" style="fill:#696970;" width="256.62" height="29.05"/>
<polygon style="fill:#484655;" points="364.035,452.007 364.085,481.059 386.717,481.059 386.717,481.024 386.667,452.007 "/>
<path style="fill:#FA9E3E;" d="M300.289,364.688l-0.167-97.25l-84.2,0.145l0.167,97.25c0.04,23.251,18.921,42.068,42.172,42.028l0,0
	C281.512,406.82,300.329,387.939,300.289,364.688z"/>
<path style="fill:#484655;" d="M120.502,116.909v13.062h274.999v-13.062C395.5,56.484,346.516,7.5,286.091,7.5h-56.18
	C169.486,7.5,120.502,56.484,120.502,116.909z"/>
<path style="fill:#35343F;" d="M286.091,7.5h-26.427c60.425,0,109.409,48.984,109.409,109.409v13.062h26.428v-13.062
	C395.5,56.484,346.516,7.5,286.091,7.5z"/>
<polygon style="fill:#FFB700;" points="113.746,117.835 114,255.747 402,255.252 401.745,117.34 "/>
<g>
	<path style="fill:#FA9E3E;" d="M127.786,224.713l49.369-0.085l0.097,56.61l-49.369,0.085
		c-15.632,0.027-28.327-12.624-28.354-28.256C99.503,237.434,112.153,224.74,127.786,224.713z"/>
	<path style="fill:#FA9E3E;" d="M388.107,224.266l-49.369,0.085l0.097,56.61l49.369-0.085c15.632-0.027,28.283-12.721,28.256-28.354
		C416.434,236.889,403.739,224.239,388.107,224.266z"/>
</g>
<path style="fill:#FFB56B;" d="M258.151,343.289L258.151,343.289c-61.919,0.106-112.201-50.003-112.307-111.922l-0.195-113.394
	l224.229-0.385l0.195,113.394C370.179,292.901,320.07,343.183,258.151,343.289z"/>
<path style="fill:#EF9245;" d="M346.544,117.628l0.215,125.061c0.092,53.578-41.782,97.426-94.622,100.449
	c1.992,0.102,3.996,0.155,6.014,0.151l0,0c61.919-0.106,112.028-50.388,111.922-112.307l-0.195-113.394L346.544,117.628z"/>
<path style="fill:#35343F;" d="M138.403,176.364v33.889c0,30.438,24.675,55.112,55.112,55.112h15.06
	c10.398,0,20.296-3.939,28.286-10.593c5.401-4.498,12.877-7.283,21.14-7.283c8.263,0,15.74,2.785,21.14,7.283
	c7.99,6.655,17.887,10.593,28.286,10.593h15.06c30.438,0,55.112-24.675,55.112-55.112v-33.889L138.403,176.364L138.403,176.364z"/>
<g>
	<path style="fill:#F0EEEE;" d="M240.997,217.902c0,12.13-17.187,21.964-38.389,21.964c-21.201,0-30.607-9.834-30.607-21.964
		c0-12.131,9.406-21.964,30.607-21.964C223.81,195.938,240.997,205.771,240.997,217.902z"/>
	<path style="fill:#F0EEEE;" d="M275.005,217.902c0,12.13,17.187,21.964,38.389,21.964c21.201,0,30.607-9.834,30.607-21.964
		c0-12.131-9.406-21.964-30.607-21.964C292.192,195.938,275.005,205.771,275.005,217.902z"/>
</g>
<path style="fill:#595866;" d="M399.675,108.352H112.327c-13.711,0-24.826,11.115-24.826,24.826v21.428
	c0,13.711,11.115,24.826,24.826,24.826h287.348c13.711,0,24.826-11.115,24.826-24.826v-21.428
	C424.501,119.467,413.386,108.352,399.675,108.352z"/>
<path style="fill:#484655;" d="M399.675,108.352h-22.45c13.711,0,24.826,11.115,24.826,24.826v21.428
	c0,13.711-11.115,24.826-24.826,24.826h22.45c13.711,0,24.826-11.115,24.826-24.826v-21.428
	C424.501,119.467,413.386,108.352,399.675,108.352z"/>
<path d="M289.945,278.502c-3.407-2.353-8.079-1.496-10.433,1.914c-4.878,7.07-12.908,11.301-21.481,11.315c-0.016,0-0.029,0-0.045,0
	c-8.556,0-16.582-4.2-21.475-11.241c-2.364-3.4-7.037-4.241-10.439-1.879c-3.401,2.364-4.242,7.038-1.879,10.44
	c7.697,11.075,20.325,17.681,33.793,17.681c0.023,0,0.047,0,0.07,0c13.494-0.023,26.131-6.677,33.803-17.798
	C294.212,285.524,293.355,280.853,289.945,278.502z"/>
<path d="M202.608,188.438c-28.097,0-38.107,15.221-38.107,29.465s10.011,29.464,38.107,29.464c25.732,0,45.889-12.942,45.889-29.464
	C248.497,201.38,228.341,188.438,202.608,188.438z M202.608,232.366c-6.947,0-23.107-1.409-23.107-14.464
	c0-13.056,16.16-14.465,23.107-14.465c17.679,0,30.889,7.637,30.889,14.465S220.287,232.366,202.608,232.366z"/>
<path d="M313.394,188.438c-25.732,0-45.889,12.942-45.889,29.465c0,16.521,20.156,29.464,45.889,29.464
	c28.097,0,38.107-15.22,38.107-29.464C351.501,203.658,341.49,188.438,313.394,188.438z M313.394,232.366
	c-17.679,0-30.889-7.636-30.889-14.464s13.21-14.465,30.889-14.465c6.947,0,23.107,1.409,23.107,14.465
	C336.501,230.957,320.341,232.366,313.394,232.366z"/>
<path d="M432.001,154.61v-21.43c0-17.074-13.306-31.089-30.092-32.244c-3.643-26.649-16.346-51.178-36.229-69.664
	C343.992,11.106,315.727,0,286.091,0h-56.18c-28.049,0-55.179,10.087-76.392,28.403c-3.136,2.707-3.482,7.443-0.775,10.578
	c2.708,3.135,7.443,3.483,10.578,0.775C181.812,23.792,205.46,15,229.911,15h56.18c25.834,0,50.472,9.68,69.375,27.256
	c16.803,15.623,27.707,36.195,31.254,58.594H129.276c2.285-14.35,7.631-28.131,15.69-40.258c2.293-3.449,1.355-8.104-2.095-10.397
	c-3.448-2.292-8.104-1.354-10.397,2.095c-9.691,14.581-15.974,31.244-18.368,48.561h-1.775c-17.827,0-32.33,14.503-32.33,32.33
	v21.431c0,15.786,11.383,28.956,26.373,31.76l0.069,37.953c-8.761,6.549-14.434,17.008-14.412,28.762
	c0.038,19.72,16.088,35.735,35.794,35.735c0.021,0,0.047,0,0.068,0l25.226-0.043c12.478,22.687,31.903,40.682,55.43,51.344
	l0.026,15.682l-3.33,0.006c-22.134,0.042-42.928,8.698-58.55,24.374c-15.626,15.679-24.208,36.504-24.165,58.639l0.067,40.469v1.767
	c0,0.021,0.003,0.04,0.003,0.06l0.039,23.393c0.003,1.989,0.797,3.896,2.206,5.3c1.405,1.401,3.31,2.188,5.294,2.188
	c0.004,0,0.009,0,0.013,0l256.58-0.44c1.989-0.004,3.896-0.797,5.3-2.206s2.191-3.318,2.188-5.308l-0.041-22.258
	c0.023-0.24,0.037-0.483,0.037-0.729v-29.053c0-0.383-0.038-0.757-0.093-1.125l-0.023-12.534
	c-0.037-22.132-8.691-42.925-24.369-58.549c-15.644-15.589-36.41-24.169-58.492-24.169c-0.047,0-0.094,0-0.142,0l-3.32,0.006
	l-0.028-15.692c23.486-10.759,42.84-28.815,55.237-51.522l25.229-0.042c9.566-0.019,18.553-3.761,25.305-10.537
	c6.751-6.775,10.459-15.774,10.44-25.338c-0.023-11.754-5.735-22.189-14.518-28.704l-0.07-38.378
	C422.493,181.253,432.001,168.844,432.001,154.61z M417.001,133.18v21.431c0,8.904-6.935,16.48-15.857,17.254
	c-0.456,0.044-0.938,0.065-1.473,0.065h-22.07h-16.392c2.152-4.979,3.392-10.902,3.392-17.323v-21.428
	c0-6.424-1.24-12.349-3.394-17.329h38.464C409.227,115.85,417.001,123.624,417.001,133.18z M370.101,210.25
	c0,4.112-0.525,8.193-1.564,12.14c-1.124,4.29-2.852,8.402-5.135,12.226c-8.561,14.338-24.237,23.245-40.91,23.245h-15.061
	c-8.298,0-16.64-3.144-23.488-8.853c-6.978-5.815-16.19-9.018-25.941-9.018s-18.964,3.202-25.941,9.019
	c-6.849,5.708-15.19,8.852-23.488,8.852h-15.062c-1.044,0-2.084-0.035-3.119-0.104c-0.317-0.021-0.629-0.067-0.945-0.094
	c-0.715-0.062-1.432-0.12-2.141-0.214c-0.373-0.05-0.739-0.126-1.11-0.184c-0.646-0.102-1.295-0.195-1.934-0.323
	c-0.388-0.078-0.768-0.182-1.153-0.269c-0.615-0.139-1.232-0.269-1.84-0.431c-0.399-0.107-0.79-0.241-1.186-0.359
	c-0.584-0.173-1.171-0.336-1.747-0.531c-0.4-0.135-0.789-0.297-1.184-0.442c-0.561-0.207-1.127-0.403-1.68-0.631
	c-0.399-0.164-0.787-0.354-1.182-0.529c-0.536-0.238-1.077-0.465-1.603-0.722c-0.396-0.193-0.778-0.411-1.168-0.615
	c-0.512-0.267-1.029-0.525-1.531-0.81c-0.387-0.22-0.759-0.464-1.14-0.695c-0.489-0.296-0.984-0.583-1.463-0.897
	c-0.379-0.249-0.743-0.521-1.115-0.781c-0.463-0.322-0.932-0.635-1.383-0.974c-0.371-0.279-0.724-0.58-1.087-0.869
	c-0.434-0.346-0.876-0.683-1.298-1.044c-0.357-0.306-0.696-0.634-1.045-0.95c-0.408-0.37-0.823-0.731-1.218-1.116
	c-0.34-0.331-0.661-0.684-0.992-1.026c-0.381-0.394-0.771-0.78-1.139-1.188c-0.322-0.357-0.624-0.735-0.936-1.103
	c-0.354-0.416-0.716-0.825-1.055-1.254c-0.301-0.381-0.581-0.782-0.871-1.173c-0.326-0.439-0.661-0.871-0.972-1.322
	c-0.277-0.402-0.531-0.823-0.796-1.235c-0.304-0.473-0.619-0.938-0.907-1.423c-0.019-0.033-0.037-0.066-0.056-0.098
	c-2.18-3.663-3.846-7.605-4.957-11.731c-1.1-4.047-1.657-8.243-1.657-12.473v-23.32h23.813c0.028,0,0.055,0.003,0.083,0.003
	c0.02,0,0.038-0.003,0.058-0.003h57.335c0.026,0,0.05,0.003,0.076,0.003c0.02,0,0.038-0.003,0.058-0.003h57.353
	c0.02,0,0.039,0.003,0.058,0.003c0.026,0,0.051-0.003,0.076-0.003h57.335c0.02,0,0.039,0.003,0.058,0.003
	c0.028,0,0.055-0.003,0.083-0.003h27.814V210.25z M162.401,154.606v-21.428c0-10.748,4.788-17.326,7.395-17.326
	c0.02,0,0.038-0.003,0.058-0.003h46.238c-0.835,4.903-1.292,10.97-1.292,17.329v21.428c0,6.357,0.457,12.421,1.291,17.323h-46.314
	C167.166,171.898,162.401,165.329,162.401,154.606z M280.623,115.85c0.741,3.136,1.579,9.005,1.579,17.329v21.428
	c0,8.319-0.836,14.186-1.577,17.323h-49.246c-0.741-3.137-1.577-9.004-1.577-17.323v-21.428c0-8.324,0.837-14.193,1.579-17.329
	H280.623z M342.147,115.85c0.02,0,0.039,0.003,0.058,0.003c2.607,0,7.396,6.578,7.396,17.326v21.428
	c0,10.722-4.764,17.292-7.376,17.323h-46.314c0.834-4.902,1.291-10.967,1.291-17.323v-21.428c0-6.359-0.457-12.426-1.292-17.329
	H342.147z M95.001,154.61v-21.43c0-9.556,7.774-17.33,17.33-17.33h38.464c-2.154,4.98-3.394,10.905-3.394,17.329v21.428
	c0,6.421,1.239,12.344,3.391,17.323h-12.391h-24.54h-1.53C102.775,171.93,95.001,164.16,95.001,154.61z M121.375,186.93h9.526v23.32
	c0,2.329,0.137,4.651,0.393,6.954l-3.528,0.006c-2.163,0.004-4.278,0.212-6.336,0.585L121.375,186.93z M127.867,273.82
	c-0.014,0-0.026,0-0.04,0c-11.448,0-20.774-9.307-20.796-20.765c-0.022-11.472,9.293-20.823,20.763-20.846l7.068-0.012
	c0.02,0.053,0.043,0.106,0.063,0.159c0.193,0.511,0.396,1.017,0.602,1.522c0.069,0.17,0.134,0.342,0.205,0.511
	c0.284,0.679,0.58,1.354,0.888,2.022c0.042,0.091,0.088,0.18,0.13,0.27c0.267,0.571,0.54,1.139,0.824,1.701
	c0.11,0.218,0.227,0.432,0.339,0.649c0.225,0.433,0.452,0.866,0.688,1.294c0.037,0.067,0.071,0.136,0.108,0.204
	c0.012,0.149,0.03,0.297,0.042,0.446c0.103,1.278,0.22,2.554,0.363,3.823c0.004,0.039,0.01,0.077,0.015,0.116
	c0.14,1.232,0.305,2.459,0.483,3.683c0.049,0.339,0.101,0.678,0.153,1.017c0.166,1.08,0.346,2.157,0.542,3.23
	c0.035,0.193,0.066,0.388,0.102,0.581c0.232,1.239,0.488,2.472,0.759,3.701c0.068,0.31,0.142,0.62,0.213,0.929
	c0.229,0.998,0.47,1.992,0.725,2.984c0.073,0.284,0.143,0.569,0.218,0.853c0.321,1.214,0.661,2.423,1.021,3.626
	c0.071,0.238,0.148,0.474,0.22,0.711c0.308,1.006,0.63,2.008,0.965,3.006c0.104,0.309,0.207,0.618,0.313,0.927
	c0.415,1.202,0.844,2.4,1.298,3.59c0.005,0.012,0.009,0.024,0.013,0.036L127.867,273.82z M227.381,346.843
	c0.296,0.078,0.592,0.153,0.888,0.228c1.09,0.279,2.183,0.544,3.28,0.792c0.181,0.041,0.361,0.086,0.543,0.126
	c1.239,0.274,2.484,0.524,3.732,0.757c0.296,0.055,0.592,0.108,0.888,0.161c1.155,0.207,2.313,0.4,3.475,0.573
	c0.131,0.019,0.26,0.042,0.391,0.061c1.265,0.184,2.536,0.343,3.809,0.486c0.305,0.034,0.609,0.066,0.914,0.098
	c1.219,0.128,2.441,0.242,3.668,0.332c0.075,0.006,0.15,0.013,0.225,0.019c1.286,0.092,2.576,0.158,3.869,0.209
	c0.314,0.012,0.629,0.023,0.944,0.033c1.3,0.042,2.603,0.07,3.909,0.07h0.001c0.082,0,0.167,0,0.25,0
	c1.321-0.003,2.637-0.034,3.951-0.079c0.311-0.011,0.622-0.022,0.933-0.035c1.307-0.055,2.612-0.124,3.912-0.22
	c0.071-0.005,0.142-0.013,0.214-0.018c1.243-0.094,2.481-0.213,3.716-0.345c0.299-0.032,0.598-0.064,0.897-0.098
	c1.286-0.148,2.57-0.311,3.848-0.5c0.132-0.02,0.264-0.043,0.396-0.063c1.174-0.178,2.344-0.376,3.511-0.589
	c0.288-0.052,0.575-0.104,0.862-0.158c1.262-0.24,2.52-0.496,3.772-0.776c0.18-0.04,0.358-0.085,0.538-0.126
	c1.117-0.256,2.229-0.529,3.337-0.817c0.277-0.072,0.555-0.142,0.832-0.216c1.232-0.33,2.46-0.677,3.682-1.047
	c0.064-0.02,0.13-0.036,0.194-0.055l0.031,19.114c0,19.046-15.496,34.567-34.543,34.601c-0.02,0-0.039,0-0.059,0
	c-19.051,0-34.566-15.483-34.599-34.53v-1.54c0-0.018-0.002-0.035-0.003-0.053l-0.029-17.468c0.068,0.02,0.136,0.037,0.204,0.057
	C224.964,346.186,226.171,346.522,227.381,346.843z M205.275,370.81l3.682-0.007c0.036,0.298,0.088,0.591,0.129,0.887
	c0.048,0.34,0.094,0.68,0.148,1.017c0.075,0.464,0.162,0.924,0.25,1.384c0.062,0.322,0.119,0.645,0.187,0.964
	c0.102,0.482,0.218,0.957,0.334,1.434c0.071,0.291,0.136,0.585,0.212,0.874c0.141,0.536,0.298,1.065,0.456,1.593
	c0.067,0.223,0.126,0.449,0.195,0.67c0.236,0.751,0.489,1.495,0.759,2.229c0.005,0.013,0.011,0.026,0.016,0.04
	c0.265,0.719,0.548,1.429,0.845,2.132c0.094,0.221,0.197,0.436,0.294,0.656c0.216,0.491,0.433,0.982,0.665,1.464
	c0.126,0.262,0.261,0.519,0.391,0.779c0.186,0.372,0.369,0.746,0.564,1.113h-54.181C172.637,376.939,188.482,370.842,205.275,370.81
	z M137.628,496.987l-0.014-8.428h241.578l0.015,8.014L137.628,496.987z M311.124,370.63c0.04,0,0.076,0,0.116,0
	c16.921,0,32.901,6.155,45.382,17.407h-35.584c-4.143,0-7.5,3.357-7.5,7.5s3.357,7.5,7.5,7.5h48.063
	c2.731,4.439,4.919,9.137,6.546,14.052H199.818c-4.143,0-7.5,3.357-7.5,7.5s3.357,7.5,7.5,7.5h178.977
	c0.193,2.077,0.302,4.173,0.305,6.285l0.011,6.133h-58.073c-4.143,0-7.5,3.357-7.5,7.5s3.357,7.5,7.5,7.5h58.1l0.026,14.053H137.599
	v-14.053h153.44c4.143,0,7.5-3.357,7.5-7.5s-3.357-7.5-7.5-7.5H137.541l-0.009-5.711c-0.004-2.254,0.101-4.491,0.313-6.706h31.977
	c4.143,0,7.5-3.357,7.5-7.5s-3.357-7.5-7.5-7.5h-28.78c1.643-4.915,3.85-9.611,6.604-14.05h79.038
	c0.027,0.022,0.054,0.042,0.081,0.064c0.543,0.446,1.096,0.879,1.658,1.301c0.051,0.039,0.1,0.08,0.152,0.118
	c0.628,0.469,1.267,0.923,1.917,1.362c0.07,0.048,0.144,0.092,0.215,0.139c0.568,0.379,1.143,0.75,1.727,1.106
	c0.192,0.117,0.39,0.227,0.584,0.341c0.469,0.277,0.939,0.553,1.417,0.815c0.24,0.132,0.485,0.255,0.728,0.383
	c0.441,0.232,0.883,0.463,1.332,0.682c0.267,0.13,0.538,0.254,0.808,0.38c0.433,0.202,0.868,0.401,1.307,0.591
	c0.285,0.123,0.573,0.24,0.861,0.358c0.433,0.177,0.868,0.35,1.306,0.515c0.299,0.112,0.599,0.221,0.901,0.327
	c0.438,0.155,0.878,0.304,1.321,0.447c0.307,0.099,0.615,0.196,0.925,0.289c0.446,0.134,0.895,0.261,1.346,0.383
	c0.313,0.085,0.627,0.169,0.943,0.248c0.455,0.113,0.914,0.217,1.374,0.318c0.318,0.069,0.634,0.14,0.954,0.204
	c0.471,0.093,0.945,0.174,1.421,0.254c0.314,0.053,0.626,0.109,0.942,0.156c0.497,0.073,0.998,0.132,1.499,0.191
	c0.3,0.035,0.598,0.076,0.899,0.106c0.554,0.054,1.112,0.091,1.671,0.127c0.253,0.016,0.504,0.041,0.758,0.053
	c0.815,0.04,1.635,0.062,2.461,0.062c0.026,0,0.058,0,0.084,0c0.823-0.002,1.641-0.025,2.455-0.066
	c0.274-0.014,0.545-0.041,0.819-0.059c0.537-0.036,1.075-0.072,1.607-0.125c0.321-0.032,0.639-0.077,0.958-0.115
	c0.479-0.057,0.959-0.114,1.434-0.185c0.338-0.051,0.673-0.112,1.009-0.169c0.451-0.077,0.902-0.155,1.349-0.244
	c0.343-0.068,0.682-0.145,1.022-0.22c0.435-0.096,0.868-0.195,1.299-0.303c0.341-0.085,0.68-0.177,1.018-0.27
	c0.422-0.116,0.843-0.235,1.26-0.361c0.337-0.102,0.672-0.208,1.007-0.317c0.412-0.135,0.822-0.274,1.23-0.419
	c0.331-0.117,0.66-0.237,0.987-0.361c0.405-0.154,0.806-0.314,1.206-0.478c0.32-0.132,0.641-0.263,0.958-0.401
	c0.401-0.175,0.798-0.358,1.194-0.543c0.306-0.143,0.613-0.284,0.916-0.433c0.402-0.198,0.798-0.406,1.194-0.615
	c0.288-0.151,0.577-0.299,0.862-0.456c0.412-0.227,0.816-0.466,1.221-0.705c0.259-0.152,0.521-0.3,0.777-0.457
	c0.454-0.279,0.898-0.571,1.342-0.864c0.198-0.13,0.4-0.254,0.596-0.387c0.634-0.431,1.258-0.875,1.87-1.334
	c0.113-0.085,0.222-0.176,0.334-0.262c0.497-0.379,0.991-0.763,1.473-1.16c0.213-0.175,0.418-0.36,0.628-0.538
	c0.374-0.318,0.747-0.636,1.111-0.965c0.231-0.209,0.454-0.425,0.681-0.638c0.332-0.311,0.663-0.622,0.986-0.942
	c0.233-0.231,0.459-0.468,0.687-0.703c0.306-0.315,0.611-0.631,0.908-0.954c0.227-0.247,0.449-0.499,0.671-0.75
	c0.286-0.323,0.569-0.648,0.847-0.979c0.218-0.26,0.432-0.524,0.645-0.789c0.269-0.334,0.534-0.671,0.795-1.012
	c0.207-0.271,0.411-0.544,0.612-0.82c0.253-0.346,0.501-0.696,0.746-1.049c0.194-0.28,0.387-0.561,0.575-0.846
	c0.239-0.361,0.471-0.726,0.7-1.093c0.179-0.286,0.358-0.572,0.532-0.862c0.226-0.379,0.444-0.763,0.66-1.148
	c0.161-0.287,0.325-0.573,0.481-0.864c0.216-0.403,0.421-0.812,0.626-1.222c0.141-0.282,0.287-0.562,0.423-0.848
	c0.211-0.442,0.408-0.891,0.606-1.34c0.115-0.261,0.237-0.518,0.347-0.782c0.229-0.544,0.442-1.097,0.652-1.652
	c0.066-0.175,0.14-0.346,0.204-0.521c0.268-0.732,0.519-1.473,0.753-2.221c0.059-0.189,0.108-0.383,0.165-0.573
	c0.168-0.561,0.333-1.123,0.482-1.693c0.074-0.284,0.136-0.573,0.205-0.859c0.116-0.482,0.233-0.963,0.336-1.451
	c0.067-0.319,0.123-0.641,0.183-0.962c0.087-0.461,0.174-0.922,0.248-1.387c0.054-0.338,0.098-0.68,0.145-1.02
	c0.043-0.311,0.096-0.62,0.133-0.933L311.124,370.63z M297.403,328.088c-12.436,5.083-25.647,7.675-39.268,7.702
	c-0.073,0-0.145,0-0.219,0c-1.69,0-3.373-0.04-5.05-0.119c-11.74-0.556-23.16-3.053-34.023-7.448
	c-23.695-9.545-43.052-27.411-54.506-50.31c-0.594-1.186-1.156-2.384-1.702-3.586c-0.098-0.215-0.197-0.43-0.293-0.646
	c-0.517-1.16-1.012-2.327-1.485-3.501c-0.09-0.223-0.177-0.447-0.265-0.671c-0.48-1.217-0.944-2.439-1.377-3.671
	c-0.015-0.044-0.029-0.088-0.044-0.131c-0.426-1.216-0.823-2.441-1.202-3.671c-0.038-0.124-0.077-0.247-0.115-0.37
	c0.146,0.101,0.298,0.196,0.445,0.296c0.399,0.271,0.8,0.54,1.206,0.802c0.233,0.151,0.468,0.299,0.703,0.447
	c0.396,0.249,0.796,0.494,1.198,0.734c0.237,0.142,0.474,0.283,0.712,0.421c0.422,0.244,0.847,0.482,1.274,0.717
	c0.22,0.121,0.438,0.244,0.66,0.363c0.529,0.283,1.064,0.556,1.601,0.824c0.12,0.06,0.238,0.124,0.359,0.183
	c0.661,0.324,1.329,0.636,2.001,0.937c0.176,0.079,0.355,0.152,0.533,0.23c0.497,0.217,0.995,0.43,1.497,0.634
	c0.245,0.1,0.491,0.194,0.737,0.29c0.443,0.174,0.887,0.344,1.335,0.507c0.265,0.097,0.53,0.191,0.796,0.284
	c0.441,0.154,0.883,0.303,1.327,0.448c0.264,0.086,0.528,0.172,0.793,0.255c0.473,0.147,0.948,0.286,1.424,0.422
	c0.236,0.067,0.471,0.138,0.708,0.203c0.633,0.173,1.269,0.335,1.908,0.488c0.08,0.019,0.158,0.041,0.238,0.06
	c0.72,0.169,1.445,0.324,2.172,0.468c0.217,0.043,0.435,0.079,0.653,0.12c0.512,0.096,1.024,0.188,1.539,0.271
	c0.272,0.044,0.545,0.082,0.818,0.123c0.468,0.069,0.937,0.134,1.408,0.192c0.286,0.036,0.573,0.069,0.86,0.1
	c0.468,0.052,0.938,0.097,1.408,0.137c0.28,0.024,0.561,0.05,0.842,0.07c0.507,0.037,1.015,0.065,1.524,0.089
	c0.242,0.012,0.484,0.027,0.727,0.036c0.749,0.027,1.5,0.044,2.253,0.044h15.061c11.801,0,23.554-4.379,33.092-12.329
	c4.287-3.573,10.089-5.541,16.338-5.541c6.249,0,12.051,1.968,16.338,5.54c9.538,7.951,21.291,12.33,33.092,12.33h15.061
	c0.75,0,1.497-0.017,2.244-0.044c0.242-0.009,0.483-0.025,0.725-0.036c0.505-0.024,1.01-0.052,1.513-0.088
	c0.283-0.021,0.565-0.046,0.847-0.07c0.466-0.04,0.931-0.085,1.395-0.136c0.288-0.031,0.576-0.065,0.864-0.1
	c0.464-0.057,0.927-0.122,1.39-0.189c0.276-0.04,0.552-0.08,0.827-0.124c0.506-0.081,1.01-0.172,1.513-0.266
	c0.224-0.042,0.449-0.079,0.672-0.123c0.721-0.142,1.44-0.296,2.154-0.463c0.1-0.023,0.198-0.051,0.297-0.075
	c0.617-0.148,1.232-0.304,1.843-0.47c0.242-0.066,0.483-0.138,0.724-0.207c0.468-0.133,0.935-0.269,1.399-0.413
	c0.27-0.084,0.539-0.171,0.808-0.259c0.436-0.142,0.871-0.288,1.304-0.439c0.271-0.095,0.541-0.19,0.81-0.289
	c0.439-0.16,0.876-0.327,1.311-0.497c0.251-0.098,0.503-0.194,0.753-0.296c0.492-0.199,0.98-0.407,1.466-0.619
	c0.185-0.081,0.373-0.157,0.557-0.239c0.668-0.298,1.332-0.607,1.99-0.928c0.125-0.061,0.248-0.127,0.373-0.189
	c0.531-0.264,1.059-0.533,1.583-0.811c0.222-0.118,0.441-0.242,0.662-0.363c0.425-0.233,0.849-0.468,1.268-0.711
	c0.239-0.138,0.475-0.279,0.712-0.42c0.402-0.239,0.801-0.483,1.198-0.731c0.233-0.146,0.465-0.292,0.697-0.441
	c0.409-0.263,0.813-0.533,1.216-0.805c0.144-0.097,0.291-0.189,0.434-0.287c-0.037,0.123-0.075,0.245-0.113,0.368
	c-0.38,1.229-0.777,2.454-1.203,3.669c-0.003,0.01-0.007,0.02-0.011,0.03c-0.423,1.206-0.876,2.402-1.344,3.593
	c-0.081,0.207-0.161,0.414-0.243,0.62c-0.461,1.151-0.944,2.296-1.448,3.433c-0.098,0.22-0.198,0.439-0.297,0.659
	c-0.521,1.155-1.058,2.305-1.623,3.445c-0.008,0.015-0.014,0.03-0.022,0.046c-0.001,0.002-0.001,0.003-0.002,0.005
	C340.357,300.514,321.066,318.443,297.403,328.088z M402.895,267.256c-3.924,3.938-9.147,6.113-14.706,6.124l-18.284,0.03
	c0.006-0.015,0.01-0.03,0.016-0.044c0.434-1.15,0.844-2.307,1.242-3.468c0.11-0.32,0.216-0.64,0.323-0.961
	c0.329-0.99,0.646-1.983,0.949-2.981c0.065-0.214,0.134-0.427,0.198-0.642c0.351-1.181,0.682-2.368,0.996-3.559
	c0.079-0.301,0.154-0.603,0.23-0.905c0.244-0.956,0.476-1.915,0.696-2.878c0.071-0.312,0.145-0.623,0.214-0.935
	c0.264-1.2,0.512-2.404,0.74-3.613c0.042-0.226,0.079-0.453,0.12-0.68c0.185-1.018,0.356-2.039,0.515-3.063
	c0.054-0.352,0.108-0.704,0.16-1.056c0.17-1.165,0.327-2.334,0.463-3.507c0.008-0.074,0.02-0.148,0.028-0.223
	c0.141-1.236,0.256-2.477,0.36-3.721c0.013-0.153,0.032-0.305,0.044-0.458c0.03-0.054,0.057-0.11,0.087-0.164
	c0.281-0.506,0.549-1.019,0.816-1.532c0.091-0.176,0.188-0.349,0.278-0.526c0.349-0.689,0.684-1.385,1.007-2.086
	c0.098-0.214,0.189-0.431,0.284-0.645c0.222-0.497,0.442-0.994,0.651-1.496c0.115-0.275,0.221-0.553,0.332-0.83
	c0.178-0.447,0.355-0.895,0.523-1.347c0.038-0.103,0.082-0.204,0.12-0.308l6.829-0.012c0.014,0,0.026,0,0.04,0
	c3.545,0,6.885,0.896,9.81,2.469c0.158,0.099,0.317,0.196,0.483,0.283c6.251,3.582,10.488,10.303,10.503,18.013
	C408.972,258.09,406.817,263.318,402.895,267.256z M388.167,216.77c-0.021,0-0.047,0-0.068,0l-3.342,0.006
	c0.225-2.163,0.344-4.341,0.344-6.525v-23.32h9.274l0.056,30.4C392.395,216.969,390.304,216.77,388.167,216.77z"/>
<g>
</g>
<g>
</g>
<g>
</g>
<g>
</g>
<g>
</g>
<g>
</g>
<g>
</g>
<g>
</g>
<g>
</g>
<g>
</g>
<g>
</g>
<g>
</g>
<g>
</g>
<g>
</g>
<g>
</g>
</svg>
